{"accessors" : [{"bufferView" : 0, "byteOffset" : 0, "componentType" : 5123, "count" : 52692, "type" : "SCALAR", "max" : [10118], "min" : [0]}, {"bufferView" : 1, "byteOffset" : 0, "componentType" : 5126, "count" : 10119, "type" : "VEC3", "max" : [1.9370909929275513, 2.9811110496520996, 1.643576979637146], "min" : [-1.9370909929275513, -0.45375800132751465, -2.4359750747680664], "name" : "POSITION"}, {"bufferView" : 1, "byteOffset" : 12, "componentType" : 5126, "count" : 10119, "type" : "VEC2", "max" : [0.9902340173721313, 0.9902340173721313], "min" : [0.00976600032299757, 0.05126100778579712], "name" : "TEXCOORD_0"}], "asset" : {"generator" : "Aspose.3D 25.11.0", "version" : "2.0"}, "buffers" : [{"uri" : "data:application/octet-stream;base64,", "byteLength" : 307772}], "bufferViews" : [{"buffer" : 0, "byteOffset" : 0, "byteLength" : 105384, "target" : 34963}, {"buffer" : 0, "byteOffset" : 105388, "byteLength" : 202380, "byteStride" : 20, "target" : 34962}], "meshes" : [{"primitives" : [{"attributes" : {"POSITION" : 1, "TEXCOORD_0" : 2}, "indices" : 0, "mode" : 4}], "name" : ""}], "nodes" : [{"mesh" : 0, "name" : "Polaroid"}], "scene" : 0, "scenes" : [{"nodes" : [0]}]}